<svg xmlns="http://www.w3.org/2000/svg" viewBox="0 0 1200 800">
  <defs>
    <linearGradient id="aboutGradient" x1="0%" y1="0%" x2="100%" y2="100%">
      <stop offset="0%" style="stop-color:#1e3a8a;stop-opacity:1" />
      <stop offset="50%" style="stop-color:#1e40af;stop-opacity:1" />
      <stop offset="100%" style="stop-color:#1d4ed8;stop-opacity:1" />
    </linearGradient>
  </defs>
  <rect width="100%" height="100%" fill="url(#aboutGradient)"/>
  <circle cx="150" cy="150" r="3" fill="rgba(255,255,255,0.3)"/>
  <circle cx="250" cy="200" r="2" fill="rgba(255,255,255,0.4)"/>
  <circle cx="350" cy="120" r="4" fill="rgba(255,255,255,0.2)"/>
  <circle cx="450" cy="180" r="3" fill="rgba(255,255,255,0.3)"/>
  <circle cx="550" cy="140" r="2" fill="rgba(255,255,255,0.4)"/>
  <circle cx="650" cy="220" r="3" fill="rgba(255,255,255,0.2)"/>
  <circle cx="750" cy="160" r="4" fill="rgba(255,255,255,0.3)"/>
  <circle cx="850" cy="200" r="2" fill="rgba(255,255,255,0.4)"/>
  <circle cx="950" cy="130" r="3" fill="rgba(255,255,255,0.2)"/>
  <circle cx="1050" cy="170" r="4" fill="rgba(255,255,255,0.3)"/>
  <circle cx="200" cy="350" r="3" fill="rgba(255,255,255,0.2)"/>
  <circle cx="300" cy="400" r="2" fill="rgba(255,255,255,0.3)"/>
  <circle cx="400" cy="320" r="4" fill="rgba(255,255,255,0.4)"/>
  <circle cx="500" cy="380" r="3" fill="rgba(255,255,255,0.2)"/>
  <circle cx="600" cy="340" r="2" fill="rgba(255,255,255,0.3)"/>
  <circle cx="700" cy="420" r="3" fill="rgba(255,255,255,0.4)"/>
  <circle cx="800" cy="360" r="4" fill="rgba(255,255,255,0.2)"/>
  <circle cx="900" cy="400" r="2" fill="rgba(255,255,255,0.3)"/>
  <circle cx="1000" cy="330" r="3" fill="rgba(255,255,255,0.4)"/>
  <circle cx="1100" cy="370" r="4" fill="rgba(255,255,255,0.2)"/>
</svg>
