<svg xmlns="http://www.w3.org/2000/svg" viewBox="0 0 1200 800">
  <defs>
    <linearGradient id="metrologyGradient" x1="0%" y1="0%" x2="100%" y2="100%">
      <stop offset="0%" style="stop-color:#1e3a8a;stop-opacity:1" />
      <stop offset="50%" style="stop-color:#1e40af;stop-opacity:1" />
      <stop offset="100%" style="stop-color:#1d4ed8;stop-opacity:1" />
    </linearGradient>
  </defs>
  <rect width="100%" height="100%" fill="url(#metrologyGradient)"/>
  <rect x="100" y="100" width="120" height="120" fill="none" stroke="rgba(255,255,255,0.2)" stroke-width="2"/>
  <line x1="160" y1="100" x2="160" y2="220" stroke="rgba(255,255,255,0.1)" stroke-width="1"/>
  <line x1="100" y1="160" x2="220" y2="160" stroke="rgba(255,255,255,0.1)" stroke-width="1"/>
  <circle cx="160" cy="160" r="8" fill="rgba(255,255,255,0.3)"/>
  <rect x="400" y="180" width="120" height="120" fill="none" stroke="rgba(255,255,255,0.15)" stroke-width="2"/>
  <line x1="460" y1="180" x2="460" y2="300" stroke="rgba(255,255,255,0.08)" stroke-width="1"/>
  <line x1="400" y1="240" x2="520" y2="240" stroke="rgba(255,255,255,0.08)" stroke-width="1"/>
  <circle cx="460" cy="240" r="6" fill="rgba(255,255,255,0.25)"/>
  <rect x="700" y="260" width="120" height="120" fill="none" stroke="rgba(255,255,255,0.18)" stroke-width="2"/>
  <line x1="760" y1="260" x2="760" y2="380" stroke="rgba(255,255,255,0.12)" stroke-width="1"/>
  <line x1="700" y1="320" x2="820" y2="320" stroke="rgba(255,255,255,0.12)" stroke-width="1"/>
  <circle cx="760" cy="320" r="10" fill="rgba(255,255,255,0.35)"/>
  <rect x="1000" y="340" width="120" height="120" fill="none" stroke="rgba(255,255,255,0.12)" stroke-width="2"/>
  <line x1="1060" y1="340" x2="1060" y2="460" stroke="rgba(255,255,255,0.06)" stroke-width="1"/>
  <line x1="1000" y1="400" x2="1120" y2="400" stroke="rgba(255,255,255,0.06)" stroke-width="1"/>
  <circle cx="1060" cy="400" r="5" fill="rgba(255,255,255,0.2)"/>
</svg>
