<svg xmlns="http://www.w3.org/2000/svg" viewBox="0 0 1200 800">
  <defs>
    <linearGradient id="projectsGradient" x1="0%" y1="0%" x2="100%" y2="100%">
      <stop offset="0%" style="stop-color:#1e3a8a;stop-opacity:1" />
      <stop offset="50%" style="stop-color:#1e40af;stop-opacity:1" />
      <stop offset="100%" style="stop-color:#1d4ed8;stop-opacity:1" />
    </linearGradient>
  </defs>
  <rect width="100%" height="100%" fill="url(#projectsGradient)"/>
  <polygon points="100,100 150,50 200,100 150,150" fill="rgba(255,255,255,0.1)"/>
  <polygon points="400,120 450,70 500,120 450,170" fill="rgba(255,255,255,0.08)"/>
  <polygon points="700,140 750,90 800,140 750,190" fill="rgba(255,255,255,0.12)"/>
  <polygon points="1000,160 1050,110 1100,160 1050,210" fill="rgba(255,255,255,0.06)"/>
  <polygon points="200,400 250,350 300,400 250,450" fill="rgba(255,255,255,0.09)"/>
  <polygon points="500,420 550,370 600,420 550,470" fill="rgba(255,255,255,0.07)"/>
  <polygon points="800,440 850,390 900,440 850,490" fill="rgba(255,255,255,0.11)"/>
  <polygon points="1100,460 1150,410 1200,460 1150,510" fill="rgba(255,255,255,0.08)"/>
</svg>
