<svg xmlns="http://www.w3.org/2000/svg" viewBox="0 0 1200 800">
  <defs>
    <linearGradient id="complianceGradient" x1="0%" y1="0%" x2="100%" y2="100%">
      <stop offset="0%" style="stop-color:#581c87;stop-opacity:1" />
      <stop offset="50%" style="stop-color:#6b21a8;stop-opacity:1" />
      <stop offset="100%" style="stop-color:#7c3aed;stop-opacity:1" />
    </linearGradient>
  </defs>
  <rect width="100%" height="100%" fill="url(#complianceGradient)"/>
  <rect x="100" y="100" width="70" height="70" fill="none" stroke="rgba(255,255,255,0.2)" stroke-width="2"/>
  <line x1="135" y1="100" x2="135" y2="170" stroke="rgba(255,255,255,0.1)" stroke-width="1"/>
  <line x1="100" y1="135" x2="170" y2="135" stroke="rgba(255,255,255,0.1)" stroke-width="1"/>
  <circle cx="135" cy="135" r="5" fill="rgba(255,255,255,0.3)"/>
  <rect x="400" y="180" width="70" height="70" fill="none" stroke="rgba(255,255,255,0.15)" stroke-width="2"/>
  <line x1="435" y1="180" x2="435" y2="250" stroke="rgba(255,255,255,0.08)" stroke-width="1"/>
  <line x1="400" y1="215" x2="470" y2="215" stroke="rgba(255,255,255,0.08)" stroke-width="1"/>
  <circle cx="435" cy="215" r="4" fill="rgba(255,255,255,0.25)"/>
  <rect x="700" y="260" width="70" height="70" fill="none" stroke="rgba(255,255,255,0.18)" stroke-width="2"/>
  <line x1="735" y1="260" x2="735" y2="330" stroke="rgba(255,255,255,0.12)" stroke-width="1"/>
  <line x1="700" y1="295" x2="770" y2="295" stroke="rgba(255,255,255,0.12)" stroke-width="1"/>
  <circle cx="735" cy="295" r="6" fill="rgba(255,255,255,0.35)"/>
  <rect x="1000" y="340" width="70" height="70" fill="none" stroke="rgba(255,255,255,0.12)" stroke-width="2"/>
  <line x1="1035" y1="340" x2="1035" y2="410" stroke="rgba(255,255,255,0.06)" stroke-width="1"/>
  <line x1="1000" y1="375" x2="1070" y2="375" stroke="rgba(255,255,255,0.06)" stroke-width="1"/>
  <circle cx="1035" cy="375" r="3" fill="rgba(255,255,255,0.2)"/>
</svg>
