<svg xmlns="http://www.w3.org/2000/svg" viewBox="0 0 1200 800">
  <defs>
    <linearGradient id="marketingGradient" x1="0%" y1="0%" x2="100%" y2="100%">
      <stop offset="0%" style="stop-color:#831843;stop-opacity:1" />
      <stop offset="50%" style="stop-color:#be185d;stop-opacity:1" />
      <stop offset="100%" style="stop-color:#ec4899;stop-opacity:1" />
    </linearGradient>
  </defs>
  <rect width="100%" height="100%" fill="url(#marketingGradient)"/>
  <rect x="100" y="100" width="90" height="90" fill="none" stroke="rgba(255,255,255,0.2)" stroke-width="2"/>
  <line x1="145" y1="100" x2="145" y2="190" stroke="rgba(255,255,255,0.1)" stroke-width="1"/>
  <line x1="100" y1="145" x2="190" y2="145" stroke="rgba(255,255,255,0.1)" stroke-width="1"/>
  <circle cx="145" cy="145" r="6" fill="rgba(255,255,255,0.25)"/>
  <rect x="400" y="180" width="90" height="90" fill="none" stroke="rgba(255,255,255,0.15)" stroke-width="2"/>
  <line x1="445" y1="180" x2="445" y2="270" stroke="rgba(255,255,255,0.08)" stroke-width="1"/>
  <line x1="400" y1="225" x2="490" y2="225" stroke="rgba(255,255,255,0.08)" stroke-width="1"/>
  <circle cx="445" cy="225" r="5" fill="rgba(255,255,255,0.2)"/>
  <rect x="700" y="260" width="90" height="90" fill="none" stroke="rgba(255,255,255,0.18)" stroke-width="2"/>
  <line x1="745" y1="260" x2="745" y2="350" stroke="rgba(255,255,255,0.12)" stroke-width="1"/>
  <line x1="700" y1="305" x2="790" y2="305" stroke="rgba(255,255,255,0.12)" stroke-width="1"/>
  <circle cx="745" cy="305" r="7" fill="rgba(255,255,255,0.3)"/>
  <rect x="1000" y="340" width="90" height="90" fill="none" stroke="rgba(255,255,255,0.12)" stroke-width="2"/>
  <line x1="1045" y1="340" x2="1045" y2="430" stroke="rgba(255,255,255,0.06)" stroke-width="1"/>
  <line x1="1000" y1="385" x2="1090" y2="385" stroke="rgba(255,255,255,0.06)" stroke-width="1"/>
  <circle cx="1045" cy="385" r="4" fill="rgba(255,255,255,0.15)"/>
</svg>
